<svg width="62" height="65" viewBox="0 0 62 65" fill="none" xmlns="http://www.w3.org/2000/svg">
<path d="M50.8172 22.3158C54.3787 23.5263 57.3608 25.4007 59.5343 28.2297C61.1295 30.306 61.9006 32.6434 61.8331 35.1539C61.7447 38.4424 60.4673 41.3757 58.2493 43.9774C56.8309 45.6412 55.1212 47.0489 53.4031 48.4465C50.8984 50.4841 48.2255 52.3282 45.4337 54.0327C45.3384 54.0909 45.2466 54.1539 45.0725 54.2671C50.7713 54.2671 56.3776 54.2671 62 54.2671C62 57.6649 62 61.025 62 64.4427C61.8564 64.4427 61.7089 64.4427 61.5615 64.4427C52.4801 64.4427 43.3987 64.4187 34.3175 64.4522C29.3304 64.4707 24.3437 64.5802 19.357 64.6598C14.995 64.7293 10.6334 64.8141 6.27157 64.8927C4.33959 64.9275 2.40764 64.9637 0.475655 64.9987C0.325196 65.0014 0.174626 64.999 0 64.999C0.215248 63.9844 0.417205 62.9973 0.646311 62.0154C0.665772 61.932 0.859002 61.8439 0.984145 61.8245C1.88845 61.6843 2.76008 61.4583 3.56691 61.057C5.20903 60.2403 6.27917 58.9757 6.80197 57.3858C7.21486 56.1301 7.4636 54.828 7.74227 53.539C8.61785 49.4887 9.47381 45.435 10.3361 41.3823C10.9124 38.6737 11.5186 35.9698 12.0422 33.2529C12.2008 32.4299 12.1717 31.5694 12.1478 30.728C12.1268 29.9902 11.6126 29.4654 10.8168 29.2878C10.4076 29.1965 9.97624 29.1567 9.55371 29.1494C8.46485 29.1307 7.37534 29.1432 6.23555 29.1432C6.34061 28.6376 6.43848 28.1598 6.53945 27.6826C6.64148 27.2003 6.74659 26.7186 6.85713 26.2051C7.57866 26.1209 8.30284 26.0336 9.02785 25.9523C12.7073 25.5397 16.3665 25.0062 19.9718 24.2273C23.2701 23.5147 26.5397 22.6946 29.8243 21.9298C32.3749 21.3359 34.9803 21.0678 37.5978 20.8548C40.1155 20.6499 42.6169 20.7465 45.1142 21.057C47.0538 21.2981 48.9513 21.6966 50.8172 22.3158ZM61.4813 36.1486C61.7726 33.5717 61.1835 31.1598 59.7074 28.9505C57.8902 26.2307 55.2374 24.3564 52.0706 23.0574C48.5386 21.6086 44.7802 21.0891 40.942 21.0044C38.1149 20.9421 35.3146 21.2636 32.5251 21.6635C32.1243 21.721 31.9071 21.8577 31.8325 22.2031C31.8235 22.2446 31.8026 22.2841 31.7859 22.3241C30.5829 25.2046 29.8475 28.1981 29.16 31.203C29.0074 31.87 28.8679 32.5394 28.7174 33.2307C28.8071 33.2091 28.8548 33.2034 28.897 33.1865C30.5314 32.5348 32.2409 32.1275 34.0041 31.8855C35.8237 31.6357 37.6364 31.5845 39.4389 31.9889C41.3022 32.4069 42.7405 33.3141 43.5049 34.9529C44.1619 36.3613 43.9603 37.757 43.3516 39.1353C42.5882 40.8638 41.3718 42.317 39.9781 43.6601C38.1154 45.4553 35.9979 46.9927 33.8862 48.5339C30.8875 50.7224 27.7253 52.7028 24.4445 54.5296C24.2559 54.6346 24.1357 54.7444 24.0838 54.9633C23.7965 56.1751 23.5092 57.3881 23.1621 58.5865C22.9363 59.3658 22.6085 60.121 22.3182 60.9092C24.8495 61.1716 27.3624 61.432 29.9078 61.6959C29.6012 62.5363 29.3066 63.344 29.0089 64.1601C39.9308 64.1601 50.8202 64.1601 61.716 64.1601C61.716 60.9428 61.716 57.7451 61.716 54.5098C55.8788 54.5098 50.0606 54.5098 44.1418 54.5098C44.327 54.3979 44.4233 54.3393 44.5201 54.2814C46.9131 52.8506 49.2298 51.3257 51.425 49.6551C53.6116 47.9912 55.7631 46.2888 57.6008 44.2994C59.7701 41.951 61.1118 39.2672 61.4813 36.1486ZM27.0866 52.7045C29.0359 51.4345 31.0191 50.2045 32.926 48.8844C35.2396 47.2827 37.4979 45.6133 39.5323 43.7174C40.9076 42.4357 42.1215 41.0439 42.9269 39.3955C43.316 38.5992 43.6357 37.7727 43.6328 36.8956C43.6256 34.7645 42.3041 33.1204 40.0697 32.4299C38.6151 31.9804 37.1137 31.8676 35.5842 31.9803C33.2541 32.1521 31.0033 32.6089 28.8665 33.4794C28.7515 33.5262 28.6322 33.6633 28.6068 33.7754C28.3766 34.791 28.1677 35.8106 27.9509 36.8287C26.8248 42.1188 25.6981 47.4088 24.5718 52.6989C24.4594 53.227 24.3487 53.7553 24.2197 54.366C25.216 53.7899 26.1306 53.2611 27.0866 52.7045Z" fill="#015743"/>
<path d="M25.6459 0.421593C26.0107 0.57276 26.3485 0.72405 26.7106 0.881648C29.4723 2.44945 30.819 4.77536 31.1534 7.60884C31.5103 10.6329 30.6157 13.3539 28.4654 15.7039C27.0982 17.1981 25.3853 18.2498 23.248 18.6046C20.2713 19.0987 17.8257 18.1867 15.933 16.103C14.1496 14.1396 13.5046 11.8227 13.6728 9.32367C13.8373 6.88047 14.7954 4.70624 16.5868 2.84873C17.3563 2.05084 18.2766 1.42216 19.2746 0.879995C19.3517 0.838129 19.4417 0.815726 19.5424 0.766542C20.3431 0.533165 21.1151 0.265648 21.914 0.113813C23.1713 -0.125126 24.4134 0.0285666 25.6459 0.421593Z" fill="#005642"/>
<path d="M61.4771 36.1776C61.1118 39.2672 59.7701 41.951 57.6008 44.2994C55.7631 46.2888 53.6116 47.9912 51.425 49.6551C49.2298 51.3257 46.9131 52.8506 44.5201 54.2814C44.4233 54.3393 44.327 54.3979 44.1418 54.5098C50.0606 54.5098 55.8788 54.5098 61.716 54.5098C61.716 57.7451 61.716 60.9428 61.716 64.1601C50.8202 64.1601 39.9308 64.1601 29.0089 64.1601C29.3066 63.344 29.6012 62.5363 29.9078 61.6959C27.3624 61.432 24.8495 61.1716 22.3182 60.9092C22.6085 60.121 22.9363 59.3658 23.1621 58.5865C23.5092 57.3881 23.7965 56.1751 24.0838 54.9633C24.1357 54.7444 24.2559 54.6346 24.4445 54.5296C27.7253 52.7028 30.8875 50.7224 33.8862 48.5339C35.9979 46.9927 38.1154 45.4553 39.9781 43.6601C41.3718 42.317 42.5882 40.8638 43.3516 39.1353C43.9603 37.757 44.1619 36.3613 43.5049 34.9529C42.7405 33.3141 41.3022 32.4069 39.4389 31.9889C37.6364 31.5845 35.8237 31.6357 34.0041 31.8855C32.2409 32.1275 30.5314 32.5348 28.897 33.1865C28.8548 33.2034 28.8071 33.2091 28.7174 33.2307C28.8679 32.5394 29.0074 31.87 29.16 31.203C29.8475 28.1981 30.5829 25.2046 31.7859 22.3241C31.8026 22.2841 31.8235 22.2446 31.8325 22.2031C31.9071 21.8577 32.1243 21.721 32.5251 21.6635C35.3146 21.2636 38.1149 20.9421 40.942 21.0044C44.7802 21.0891 48.5386 21.6086 52.0706 23.0574C55.2374 24.3564 57.8902 26.2307 59.7074 28.9505C61.1835 31.1598 61.7726 33.5717 61.4771 36.1776Z" fill="white"/>
</svg>