<svg width="62" height="65" viewBox="0 0 62 65" fill="none" xmlns="http://www.w3.org/2000/svg">
<g clip-path="url(#clip0_1711_4)">
<path d="M61.4426 54.7602H61.4662V54.7755V54.7945V54.8134V54.8324V54.8513V54.8703V54.8892V54.9081V54.9271V54.946V54.965V54.9839V55.0028V55.0218V55.0407V55.0596V55.0786V55.0975V55.1164V55.1353V55.1543V55.1732V55.1921V55.2111V55.23V55.2489V55.2678V55.2868V55.3057V55.3246V55.3435V55.3625V55.3814V55.4003V55.4192V55.4381V55.457V55.476V55.4949V55.5138V55.5327V55.5516V55.5705V55.5894V55.6084V55.6273V55.6462V55.6651V55.684V55.7029V55.7218V55.7407V55.7596V55.7785V55.7974V55.8163V55.8352V55.8541V55.873V55.8919V55.9109V55.9297V55.9487V55.9675V55.9864V56.0053V56.0242V56.0431V56.062V56.0809V56.0998V56.1187V56.1376V56.1565V56.1754V56.1943V56.2132V56.2321V56.2509V56.2698V56.2887V56.3076V56.3265V56.3454V56.3643V56.3832V56.402V56.4209V56.4398V56.4587V56.4776V56.4964V56.5153V56.5342V56.5531V56.572V56.5908V56.6097V56.6286V56.6475V56.6663V56.6852V56.7041V56.723V56.7418V56.7607V56.7796V56.7985V56.8173V56.8362V56.8551V56.8739V56.8928V56.9117V56.9305V56.9494V56.9683V56.9871V57.006V57.0249V57.0437V57.0626V57.0815V57.1003V57.1192V57.1381V57.1569V57.1758V57.1946V57.2135V57.2324V57.2512V57.2701V57.2889V57.3078V57.3267V57.3455V57.3644V57.3832V57.4021V57.4209V57.4398V57.4586V57.4775V57.4963V57.5152V57.534V57.5529V57.5718V57.5906V57.6095V57.6283V57.6472V57.666V57.6849V57.7037V57.7225V57.7414V57.7602V57.7791V57.7979V57.8168V57.8356V57.8545V57.8733V57.8922V57.911V57.9298V57.9487V57.9675V57.9864V58.0052V58.0241V58.0429V58.0617V58.0806V58.0994V58.1183V58.1371V58.1559V58.1748V58.1936V58.2124V58.2313V58.2501V58.269V58.2878V58.3066V58.3255V58.3443V58.3631V58.382V58.4008V58.4196V58.4385V58.4573V58.4761V58.495V58.5138V58.5326V58.5515V58.5703V58.5891V58.608V58.6268V58.6456V58.6644V58.6833V58.7021V58.7209V58.7398V58.7586V58.7774V58.7962V58.8151V58.8339V58.8527V58.8716V58.8904V58.9092V58.928V58.9469V58.9657V58.9845V59.0033V59.0222V59.041V59.0598V59.0786V59.0974V59.1163V59.1351V59.1539V59.1727V59.1916V59.2104V59.2292V59.248V59.2668V59.2857V59.3045V59.3233V59.3421V59.361V59.3798V59.3986V59.4174V59.4362V59.455V59.4739V59.4927V59.5115V59.5303V59.5491V59.568V59.5868V59.6056V59.6244V59.6432V59.662V59.6809V59.6997V59.7185V59.7373V59.7561V59.7749V59.7938V59.8126V59.8314V59.8502V59.869V59.8878V59.9067V59.9255V59.9443V59.9631V59.9819V60.0007V60.0195V60.0384V60.0572V60.076V60.0948V60.1136V60.1324V60.1512V60.1701V60.1889V60.2077V60.2265V60.2453V60.2641V60.2829V60.3018V60.3206V60.3394V60.3582V60.377V60.3958V60.4146V60.4334V60.4523V60.4711V60.4899V60.5087V60.5275V60.5463V60.5651V60.5839V60.6028V60.6216V60.6404V60.6592V60.678V60.6968V60.7156V60.7344V60.7533V60.7721V60.7909V60.8097V60.8285V60.8473V60.8661V60.8849V60.9037V60.9226V60.9414V60.9602V60.979V60.9978V61.0166V61.0354V61.0542V61.0731V61.0919V61.1107V61.1295V61.1483V61.1671V61.1859V61.2047V61.2236V61.2424V61.2612V61.28V61.2988V61.3176V61.3364V61.3552V61.3741V61.3929V61.4117V61.4305V61.4493V61.4681V61.4869V61.5058V61.5246V61.5434V61.5622V61.581V61.5998V61.6186V61.6374V61.6563V61.6751V61.6939V61.7127V61.7315V61.7503V61.7691V61.788V61.8068V61.8256V61.8444V61.8632V61.882V61.9009V61.9197V61.9385V61.9573V61.9761V61.9949V62.0138V62.0326V62.0514V62.0702V62.089V62.1078V62.1267V62.1455V62.1643V62.1831V62.2019V62.2208V62.2396V62.2584V62.2772V62.296V62.3148V62.3337V62.3525V62.3713V62.3901V62.409V62.4278V62.4466V62.4654V62.4842V62.5031V62.5219V62.5407V62.5595V62.5783V62.5972V62.616V62.6348V62.6536V62.6725V62.6913V62.7101V62.7289V62.7478V62.7666V62.7854V62.8042V62.8231V62.8419V62.8607V62.8795V62.8984V62.9172V62.936V62.9548V62.9737V62.9925V63.0113V63.0302V63.049V63.0678V63.0867V63.1055V63.1243V63.1431V63.162V63.1808V63.1996V63.2185V63.2373V63.2561V63.275V63.2938V63.3126V63.3315V63.3503V63.3691V63.388V63.4068V63.4256V63.4445V63.4633V63.4822V63.501V63.5198V63.5387V63.5575V63.5763V63.5952V63.614V63.6329V63.6517V63.6705V63.6894V63.7082V63.7271V63.7459V63.7647V63.7836V63.8024V63.8213V63.8401V63.859V63.8778V63.8967V63.9105H61.4608H61.3969H61.3331H61.2693H61.2054H61.1416H61.0777H61.0139H60.9501H60.8862H60.8224H60.7585H60.6947H60.6309H60.567H60.5032H60.4393H60.3755H60.3117H60.2478H60.184H60.1201H60.0563H59.9925H59.9286H59.8648H59.8009H59.7371H59.6733H59.6094H59.5456H59.4817H59.4179H59.3541H59.2902H59.2264H59.1626H59.0987H59.0349H58.971H58.9072H58.8434H58.7795H58.7157H58.6519H58.588H58.5242H58.4603H58.3965H58.3327H58.2688H58.205H58.1412H58.0773H58.0135H57.9496H57.8858H57.822H57.7581H57.6943H57.6305H57.5666H57.5028H57.4389H57.3751H57.3113H57.2474H57.1836H57.1198H57.0559H56.9921H56.9283H56.8644H56.8006H56.7367H56.6729H56.6091H56.5452H56.4814H56.4176H56.3537H56.2899H56.2261H56.1622H56.0984H56.0345H55.9707H55.9069H55.843H55.7792H55.7154H55.6515H55.5877H55.5239H55.46H55.3962H55.3323H55.2685H55.2047H55.1408H55.077H55.0132H54.9493H54.8855H54.8217H54.7578H54.694H54.6301H54.5663H54.5025H54.4386H54.3748H54.311H54.2471H54.1833H54.1194H54.0556H53.9918H53.9279H53.8641H53.8003H53.7364H53.6726H53.6087H53.5449H53.4811H53.4172H53.3534H53.2895H53.2257H53.1619H53.098H53.0342H52.9704H52.9065H52.8427H52.7788H52.715H52.6512H52.5873H52.5235H52.4596H52.3958H52.332H52.2681H52.2043H52.1404H52.0766H52.0128H51.9489H51.8851H51.8212H51.7574H51.6936H51.6297H51.5659H51.502H51.4382H51.3744H51.3105H51.2467H51.1828H51.119H51.0551H50.9913H50.9275H50.8636H50.7998H50.7359H50.6721H50.6082H50.5444H50.4806H50.4167H50.3529H50.289H50.2252H50.1613H50.0975H50.0336H49.9698H49.906H49.8421H49.7783H49.7144H49.6506H49.5867H49.5229H49.459H49.3952H49.3313H49.2675H49.2036H49.1398H49.076H49.0121H48.9483H48.8844H48.8206H48.7567H48.6929H48.629H48.5652H48.5013H48.4375H48.3736H48.3098H48.2459H48.1821H48.1182H48.0544H47.9905H47.9267H47.8628H47.799H47.7351H47.6713H47.6074H47.5435H47.4797H47.4158H47.352H47.2881H47.2243H47.1604H47.0966H47.0327H46.9689H46.905H46.8412H46.7773H46.7134H46.6496H46.5857H46.5219H46.458H46.3942H46.3303H46.2664H46.2026H46.1387H46.0749H46.011H45.9471H45.8833H45.8194H45.7556H45.6917H45.6278H45.564H45.5001H45.4363H45.3724H45.3085H45.2447H45.1808H45.1169H45.0531H44.9892H44.9254H44.8615H44.7976H44.7338H44.6699H44.606H44.5422H44.4783H44.4144H44.3506H44.2867H44.2228H44.159H44.0951H44.0312H43.9674H43.9035H43.8396H43.7757H43.7119H43.648H43.5841H43.5203H43.4564H43.3925H43.3286H43.2648H43.2009H43.137H43.0732H43.0093H42.9454H42.8815H42.8177H42.7538H42.6899H42.626H42.5622H42.4983H42.4344H42.3705H42.3066H42.2428H42.1789H42.115H42.0511H41.9872H41.9234H41.8595H41.7956H41.7317H41.6678H41.604H41.5401H41.4762H41.4123H41.3484H41.2845H41.2207H41.1568H41.0929H41.029H40.9651H40.9012H40.8373H40.7734H40.7096H40.6457H40.5818H40.5179H40.454H40.3901H40.3262H40.2623H40.1984H40.1345H40.0707H40.0068H39.9429H39.879H39.8151H39.7512H39.6873H39.6234H39.5595H39.4956H39.4317H39.3678H39.3039H39.24H39.1761H39.1122H39.0483H38.9844H38.9205H38.8566H38.7927H38.7288H38.6649H38.601H38.5371H38.4732H38.4093H38.3454H38.2815H38.2176H38.1537H38.0898H38.0258H37.9619H37.898H37.8341H37.7702H37.7063H37.6424H37.5785H37.5146H37.4507H37.3867H37.3228H37.2589H37.195H37.1311H37.0672H37.0033H36.9393H36.8754H36.8115H36.7476H36.6837H36.6197H36.5558H36.4919H36.428H36.3641H36.3001H36.2362H36.1723H36.1084H36.0445H35.9805H35.9166H35.8527H35.7887H35.7248H35.6609H35.597H35.533H35.4691H35.4052H35.3413H35.2773H35.2134H35.1495H35.0855H35.0216H34.9577H34.8937H34.8298H34.7659H34.7019H34.638H34.574H34.5101H34.4462H34.3822H34.3183H34.2544H34.1904H34.1265H34.0625H33.9986H33.9346H33.8707H33.8068H33.7428H33.6789H33.6149H33.551H33.487H33.4231H33.3591H33.2952H33.2312H33.1673H33.1033H33.0394H32.9754H32.9115H32.8475H32.7836H32.7196H32.6556H32.5917H32.5277H32.4638H32.3998H32.3359H32.2719H32.2079H32.144H32.08H32.0161H31.9521H31.8881H31.8242H31.7602H31.6962H31.6323H31.5683H31.5043H31.4404H31.3764H31.3124H31.2485H31.1845H31.1205H31.0565H30.9926H30.9286H30.8646H30.8006H30.7367H30.6727H30.6087H30.5447H30.4808H30.4168H30.3528H30.2888H30.2248H30.1609H30.0969H30.0329H29.9689H29.9049H29.8409H29.777H29.713H29.649H29.585H29.521H29.457H29.393H29.329H29.265H29.201H29.137H29.0731H29.0117H29.0091L21.823 63.7568L22.557 60.985C22.6428 60.7524 22.7334 60.5189 22.8244 60.2845C23.0331 59.7467 23.2437 59.2041 23.4024 58.6565L23.1623 58.5869L23.4024 58.6565C23.7496 57.4575 24.0371 56.245 24.3227 55.0406L24.3272 55.0214C24.3446 54.9479 24.3701 54.9039 24.4003 54.8698C24.4335 54.8323 24.4829 54.7949 24.5663 54.7485L24.4447 54.53L24.5663 54.7484C27.8545 52.9175 31.0255 50.9317 34.0337 48.7363L34.1523 48.6497C36.2223 47.1391 38.3097 45.6158 40.1517 43.8405C41.5566 42.4867 42.7985 41.0073 43.5805 39.2367L43.3518 39.1357L43.5805 39.2367C44.2065 37.8192 44.4296 36.3439 43.7316 34.8476C42.925 33.1183 41.4078 32.1748 39.4938 31.7454C37.6517 31.3321 35.8066 31.3862 33.9703 31.6382C32.2804 31.8702 30.6349 32.2532 29.0542 32.8573C29.0704 32.7819 29.0865 32.7068 29.1026 32.6319C29.2022 32.1682 29.2999 31.7137 29.4039 31.2592C30.0913 28.2547 30.8228 25.2798 32.0168 22.4209L32.0168 22.4208C32.0173 22.4195 32.0186 22.4168 32.0203 22.413C32.0314 22.3886 32.0636 22.3182 32.077 22.2565L32.077 22.2563C32.1043 22.1301 32.1501 22.0678 32.2058 22.0264C32.2704 21.9783 32.3765 21.9378 32.5608 21.9114C35.3471 21.5119 38.1308 21.1929 40.9367 21.2548C44.757 21.3391 48.4821 21.856 51.9759 23.2891C55.11 24.5747 57.7172 26.4219 59.4997 29.0898C60.9432 31.2504 61.5175 33.603 61.2289 36.1493C60.8704 39.1801 59.5551 41.8159 57.4173 44.1302C55.5958 46.1021 53.4598 47.7931 51.2738 49.4566L51.4252 49.6555L51.2738 49.4566C49.0876 51.1203 46.7789 52.6401 44.392 54.0673L44.3919 54.0673C44.3264 54.1064 44.2609 54.1461 44.1691 54.2017C44.1242 54.2288 44.0731 54.2597 44.0127 54.2963L43.2448 54.7602H44.142H44.1766H44.2113H44.246H44.2807H44.3153H44.35H44.3847H44.4193H44.454H44.4887H44.5233H44.558H44.5926H44.6273H44.6619H44.6966H44.7312H44.7658H44.8005H44.8351H44.8698H44.9044H44.939H44.9736H45.0083H45.0429H45.0775H45.1121H45.1467H45.1814H45.216H45.2506H45.2852H45.3198H45.3544H45.389H45.4236H45.4582H45.4928H45.5274H45.562H45.5966H45.6312H45.6657H45.7003H45.7349H45.7695H45.8041H45.8386H45.8732H45.9078H45.9424H45.9769H46.0115H46.0461H46.0806H46.1152H46.1497H46.1843H46.2188H46.2534H46.2879H46.3225H46.357H46.3916H46.4261H46.4607H46.4952H46.5297H46.5643H46.5988H46.6333H46.6678H46.7024H46.7369H46.7714H46.8059H46.8405H46.875H46.9095H46.944H46.9785H47.013H47.0475H47.082H47.1165H47.151H47.1855H47.22H47.2545H47.289H47.3235H47.358H47.3925H47.427H47.4615H47.4959H47.5304H47.5649H47.5994H47.6339H47.6683H47.7028H47.7373H47.7717H47.8062H47.8407H47.8751H47.9096H47.9441H47.9785H48.013H48.0474H48.0819H48.1163H48.1508H48.1852H48.2197H48.2541H48.2886H48.323H48.3575H48.3919H48.4263H48.4608H48.4952H48.5296H48.5641H48.5985H48.6329H48.6673H48.7018H48.7362H48.7706H48.805H48.8395H48.8739H48.9083H48.9427H48.9771H49.0115H49.0459H49.0803H49.1147H49.1491H49.1835H49.2179H49.2523H49.2867H49.3211H49.3555H49.3899H49.4243H49.4587H49.4931H49.5275H49.5619H49.5962H49.6306H49.665H49.6994H49.7338H49.7681H49.8025H49.8369H49.8713H49.9056H49.94H49.9744H50.0087H50.0431H50.0775H50.1118H50.1462H50.1806H50.2149H50.2493H50.2836H50.318H50.3523H50.3867H50.421H50.4554H50.4897H50.5241H50.5584H50.5928H50.6271H50.6615H50.6958H50.7301H50.7645H50.7988H50.8331H50.8675H50.9018H50.9361H50.9705H51.0048H51.0391H51.0735H51.1078H51.1421H51.1764H51.2108H51.2451H51.2794H51.3137H51.348H51.3823H51.4167H51.451H51.4853H51.5196H51.5539H51.5882H51.6225H51.6568H51.6911H51.7254H51.7597H51.794H51.8283H51.8626H51.8969H51.9312H51.9655H51.9998H52.0341H52.0684H52.1027H52.137H52.1713H52.2056H52.2399H52.2741H52.3084H52.3427H52.377H52.4113H52.4456H52.4798H52.5141H52.5484H52.5827H52.617H52.6512H52.6855H52.7198H52.754H52.7883H52.8226H52.8569H52.8911H52.9254H52.9597H52.9939H53.0282H53.0625H53.0967H53.131H53.1652H53.1995H53.2338H53.268H53.3023H53.3365H53.3708H53.405H53.4393H53.4736H53.5078H53.5421H53.5763H53.6106H53.6448H53.6791H53.7133H53.7475H53.7818H53.816H53.8503H53.8845H53.9188H53.953H53.9873H54.0215H54.0557H54.09H54.1242H54.1584H54.1927H54.2269H54.2612H54.2954H54.3296H54.3638H54.3981H54.4323H54.4665H54.5008H54.535H54.5692H54.6035H54.6377H54.6719H54.7061H54.7404H54.7746H54.8088H54.843H54.8773H54.9115H54.9457H54.9799H55.0141H55.0484H55.0826H55.1168H55.151H55.1852H55.2195H55.2537H55.2879H55.3221H55.3563H55.3905H55.4247H55.459H55.4932H55.5274H55.5616H55.5958H55.63H55.6642H55.6984H55.7326H55.7668H55.801H55.8353H55.8695H55.9037H55.9379H55.9721H56.0063H56.0405H56.0747H56.1089H56.1431H56.1773H56.2115H56.2457H56.2799H56.3141H56.3483H56.3825H56.4167H56.4509H56.4851H56.5193H56.5535H56.5877H56.6219H56.6561H56.6903H56.7245H56.7587H56.7929H56.8271H56.8613H56.8955H56.9296H56.9638H56.998H57.0322H57.0664H57.1006H57.1348H57.169H57.2032H57.2374H57.2716H57.3058H57.34H57.3741H57.4083H57.4425H57.4767H57.5109H57.5451H57.5793H57.6135H57.6477H57.6818H57.716H57.7502H57.7844H57.8186H57.8528H57.887H57.9212H57.9553H57.9895H58.0237H58.0579H58.0921H58.1263H58.1605H58.1947H58.2288H58.263H58.2972H58.3314H58.3656H58.3998H58.4339H58.4681H58.5023H58.5365H58.5707H58.6049H58.6391H58.6732H58.7074H58.7416H58.7758H58.81H58.8442H58.8784H58.9125H58.9467H58.9809H59.0151H59.0493H59.0835H59.1176H59.1518H59.186H59.2202H59.2544H59.2886H59.3228H59.3569H59.3911H59.4253H59.4595H59.4937H59.5279H59.5621H59.5962H59.6304H59.6646H59.6988H59.733H59.7672H59.8014H59.8355H59.8697H59.9039H59.9381H59.9723H60.0065H60.0407H60.0748H60.109H60.1432H60.1774H60.2116H60.2458H60.28H60.3142H60.3484H60.3825H60.4167H60.4509H60.4851H60.5193H60.5535H60.5877H60.6219H60.6561H60.6903H60.7245H60.7586H60.7928H60.827H60.8612H60.8954H60.9296H60.9638H60.998H61.0322H61.0664H61.1006H61.1348H61.169H61.2032H61.2374H61.2716H61.3058H61.34H61.3742H61.4084H61.4426ZM31.8327 22.2035C31.9073 21.8581 32.1245 21.7214 32.5253 21.6639C35.3148 21.264 38.1151 20.9425 40.9422 21.0048C44.7804 21.0895 48.5388 21.609 52.0708 23.0578C55.2376 24.3568 57.8904 26.2311 59.7076 28.9509C61.1837 31.1602 61.7728 33.5721 61.4773 36.178L31.8327 22.2035Z" fill="white" stroke="#015743" stroke-width="0.5"/>
<path d="M50.8172 22.3162C54.3787 23.5267 57.3608 25.4011 59.5343 28.2301C61.1295 30.3064 61.9006 32.6438 61.8331 35.1543C61.7447 38.4428 60.4673 41.3761 58.2493 43.9778C56.8309 45.6416 55.1212 47.0493 53.4031 48.4469C50.8984 50.4845 48.2255 52.3286 45.4337 54.0331C45.3384 54.0913 45.2466 54.1543 45.0725 54.2675C50.7713 54.2675 56.3776 54.2675 62 54.2675C62 57.6653 62 61.0254 62 64.4431C61.8564 64.4431 61.7089 64.4431 61.5615 64.4431C52.4801 64.4431 43.3987 64.4191 34.3175 64.4526C29.3304 64.4711 24.3437 64.5806 19.357 64.6602C14.995 64.7297 10.6334 64.8145 6.27157 64.8931C4.33959 64.9279 2.40764 64.9641 0.475655 64.9991C0.325196 65.0018 0.174626 64.9994 0 64.9994C0.215248 63.9848 0.417205 62.9977 0.646311 62.0158C0.665772 61.9324 0.859002 61.8443 0.984145 61.8249C1.88845 61.6847 2.76008 61.4587 3.56691 61.0574C5.20903 60.2407 6.27917 58.9761 6.80197 57.3862C7.21486 56.1305 7.4636 54.8284 7.74227 53.5394C8.61785 49.4891 9.47381 45.4354 10.3361 41.3827C10.9124 38.6741 11.5186 35.9702 12.0422 33.2533C12.2008 32.4303 12.1717 31.5698 12.1478 30.7284C12.1268 29.9906 11.6126 29.4658 10.8168 29.2882C10.4076 29.1969 9.97624 29.1571 9.55371 29.1498C8.46485 29.1311 7.37534 29.1436 6.23555 29.1436C6.34061 28.638 6.43848 28.1602 6.53945 27.683C6.64148 27.2007 6.74659 26.719 6.85713 26.2055C7.57866 26.1213 8.30284 26.034 9.02785 25.9527C12.7073 25.5401 16.3665 25.0066 19.9718 24.2277C23.2701 23.5151 26.5397 22.695 29.8243 21.9302C32.3749 21.3363 34.9803 21.0682 37.5978 20.8552C40.1155 20.6503 42.6169 20.7469 45.1142 21.0574C47.0538 21.2985 48.9513 21.697 50.8172 22.3162ZM61.4813 36.149C61.7726 33.5721 61.1835 31.1602 59.7074 28.9509C57.8902 26.2311 55.2374 24.3568 52.0706 23.0578C48.5386 21.609 44.7802 21.0895 40.942 21.0048C38.1149 20.9425 35.3146 21.264 32.5251 21.6639C32.1243 21.7214 31.9071 21.8581 31.8325 22.2035C31.8235 22.245 31.8026 22.2845 31.7859 22.3245C30.5829 25.205 29.8475 28.1985 29.16 31.2034C29.0074 31.8704 28.8679 32.5398 28.7174 33.2311C28.8071 33.2095 28.8548 33.2038 28.897 33.1869C30.5314 32.5352 32.2409 32.1279 34.0041 31.8859C35.8237 31.6361 37.6364 31.5849 39.4389 31.9893C41.3022 32.4073 42.7405 33.3145 43.5049 34.9533C44.1619 36.3617 43.9603 37.7574 43.3516 39.1357C42.5882 40.8642 41.3718 42.3174 39.9781 43.6605C38.1154 45.4557 35.9979 46.9931 33.8862 48.5343C30.8875 50.7228 27.7253 52.7032 24.4445 54.53C24.2559 54.635 24.1357 54.7448 24.0838 54.9637C23.7965 56.1755 23.5092 57.3885 23.1621 58.5869C22.9363 59.3662 22.6085 60.1214 22.3182 60.9096C24.8495 61.172 27.3624 61.4324 29.9078 61.6963C29.6012 62.5367 29.3066 63.3444 29.0089 64.1605C39.9308 64.1605 50.8202 64.1605 61.716 64.1605C61.716 60.9432 61.716 57.7455 61.716 54.5102C55.8788 54.5102 50.0606 54.5102 44.1418 54.5102C44.327 54.3983 44.4233 54.3397 44.5201 54.2818C46.9131 52.851 49.2298 51.3261 51.425 49.6555C53.6116 47.9916 55.7631 46.2892 57.6008 44.2998C59.7701 41.9514 61.1118 39.2676 61.4813 36.149ZM27.0866 52.7049C29.0359 51.4349 31.0191 50.2049 32.926 48.8848C35.2396 47.2831 37.4979 45.6137 39.5323 43.7178C40.9076 42.4361 42.1215 41.0443 42.9269 39.3959C43.316 38.5996 43.6357 37.7731 43.6328 36.896C43.6256 34.7649 42.3041 33.1208 40.0697 32.4303C38.6151 31.9808 37.1137 31.868 35.5842 31.9807C33.2541 32.1525 31.0033 32.6093 28.8665 33.4798C28.7515 33.5266 28.6322 33.6637 28.6068 33.7758C28.3766 34.7914 28.1677 35.811 27.9509 36.8291C26.8248 42.1192 25.6981 47.4092 24.5718 52.6993C24.4594 53.2274 24.3487 53.7557 24.2197 54.3664C25.216 53.7903 26.1306 53.2615 27.0866 52.7049Z" fill="#015743"/>
<path d="M25.6463 0.421593C26.0111 0.57276 26.3489 0.72405 26.711 0.881648C29.4727 2.44945 30.8194 4.77536 31.1538 7.60884C31.5107 10.6329 30.6161 13.3539 28.4658 15.7039C27.0986 17.1981 25.3857 18.2498 23.2484 18.6046C20.2717 19.0987 17.8261 18.1867 15.9334 16.103C14.15 14.1396 13.505 11.8227 13.6732 9.32367C13.8377 6.88047 14.7958 4.70624 16.5872 2.84873C17.3567 2.05084 18.277 1.42216 19.275 0.879995C19.3521 0.838129 19.4421 0.815726 19.5428 0.766542C20.3435 0.533165 21.1155 0.265648 21.9144 0.113813C23.1717 -0.125126 24.4138 0.0285664 25.6463 0.421593Z" fill="#005642"/>
</g>
<defs>
<clipPath id="clip0_1711_4">
<rect width="62" height="65" fill="white"/>
</clipPath>
</defs>
</svg>